<?xml version="1.0" standalone="no"?><!DOCTYPE svg PUBLIC "-//W3C//DTD SVG 1.1//EN" "http://www.w3.org/Graphics/SVG/1.1/DTD/svg11.dtd"><svg class="icon" width="200px" height="200.00px" viewBox="0 0 1024 1024" version="1.1" xmlns="http://www.w3.org/2000/svg"><path d="M512 0C229.2224 0 0 229.21728 0 512s229.2224 512 512 512 512-229.21728 512-512S794.7776 0 512 0z m281.89696 671.57504c-13.22496 12.34432-35.92192-1.10592-57.74336-31.29856a330.44992 330.44992 0 0 1-36.1472 70.30784c30.85312 11.01824 50.69312 28.2112 50.69312 47.61088 0 33.50016-59.2896 60.61056-132.45952 60.61056-43.4176 0-81.77152-9.47712-106.01472-24.2432-24.02304 14.76608-62.592 24.2432-106.01472 24.2432-73.17504 0-132.45952-27.1104-132.45952-60.61056 0-19.1744 19.83488-36.58752 50.69312-47.61088-14.54592-21.16096-26.66496-44.74368-36.14208-70.30784-21.82144 29.97248-44.52352 43.63776-57.74336 31.29856-18.0736-16.9728-11.24352-76.92288 15.64672-133.7856 6.1696-13.0048 12.78464-24.68352 19.61472-34.82112 3.74784-165.30432 112.62976-297.98912 246.19008-297.98912h0.44032c133.56544 0 242.44736 132.45952 246.19008 297.98912 6.8352 10.1376 13.44 21.82144 19.61472 34.82112 26.65984 56.86272 33.7152 116.8128 15.6416 133.7856z" fill="#8a8a8a" /></svg>