<?xml version="1.0" standalone="no"?><!DOCTYPE svg PUBLIC "-//W3C//DTD SVG 1.1//EN" "http://www.w3.org/Graphics/SVG/1.1/DTD/svg11.dtd"><svg class="icon" width="200px" height="200.00px" viewBox="0 0 1024 1024" version="1.1" xmlns="http://www.w3.org/2000/svg"><path d="M512 1024C229.2224 1024 0 794.7776 0 512S229.2224 0 512 0s512 229.2224 512 512-229.2224 512-512 512z m-51.2-245.76c175.3088 0 316.0832-91.6992 316.0832-204.8 0-95.5648-119.68-95.5648-119.68-101.7344 0-6.144 59.5968-61.6704 0-96.2048s-168.576 17.9712-165.2992 12.3392c46.8736-80.64-20.1216-106.0864-54.272-106.0864-81.408 0-294.272 178.5856-294.272 291.6864s142.1312 204.8 317.44 204.8z m24.832-35.5328c-112.0256 15.744-211.1232-30.5152-221.3376-103.3216s72.2688-144.5888 184.2688-160.3328c112-15.744 211.0976 30.5152 221.3376 103.3216s-72.2688 144.5888-184.2688 160.3328z m-19.968-25.472c66.6112-12.9536 111.872-68.4544 101.0944-123.9552-10.8032-55.5264-73.5488-90.0352-140.16-77.056-66.6368 12.928-111.872 68.4288-101.0944 123.9296 10.8032 55.5264 73.5488 90.0352 140.16 77.0816zM450.56 593.92a20.48 20.48 0 1 1 0-40.96 20.48 20.48 0 0 1 0 40.96z m-38.0672 61.1584c-20.5056 9.5488-42.9568 4.8384-50.1248-10.5472-7.168-15.36 3.6352-35.584 24.1408-45.1328 20.5056-9.5744 42.9312-4.864 50.1248 10.496 7.168 15.4112-3.6608 35.6096-24.1408 45.184zM734.9248 326.144c-36.992-33.28-74.8032-21.888-74.8032-21.888a29.312 29.312 0 0 0-25.2416 28.3648v-15.872c0 14.08 11.4432 24.7552 25.7536 24.96 0 0 29.8752-5.6832 49.6128 17.7408 19.7376 23.4496 6.656 50.816 6.656 50.816-3.6608 13.4912 4.7104 24.448 18.9696 24.448h-8.064c14.1568 0 27.776-11.2384 29.4912-25.088 0 0 14.6432-50.176-22.3744-83.456z m69.0944-66.6112c-67.84-64.1536-151.3472-54.5792-151.3472-54.5792A38.272 38.272 0 0 0 614.4 243.4048V220.928c0 21.3248 16.9472 37.888 38.4256 38.2208 0 0 79.616-10.368 120.3456 48.0512s24.576 115.2 24.576 115.2c-2.6624 21.12 12.3392 38.2208 33.4592 38.2208h-22.2976c21.1456 0 40.5248-16.896 42.1888-38.4 0 0 20.7616-98.5344-47.104-162.688z" fill="#FF5222" /></svg>