<?xml version="1.0" standalone="no"?><!DOCTYPE svg PUBLIC "-//W3C//DTD SVG 1.1//EN" "http://www.w3.org/Graphics/SVG/1.1/DTD/svg11.dtd"><svg class="icon" width="200px" height="199.80px" viewBox="0 0 1025 1024" version="1.1" xmlns="http://www.w3.org/2000/svg"><path d="M511.489531 513.531406m-510.468594 0a510.468594 510.468594 0 1 0 1020.937189 0 510.468594 510.468594 0 1 0-1020.937189 0Z" fill="#26A92E" /><path d="M629.407777 406.333001c7.657029 0 15.314058 0.510469 22.971086 1.531406-20.418744-94.947159-122.001994-165.902293-238.388833-165.902293-129.659023 0-235.836491 88.311067-235.836491 200.614157 0 64.829511 35.222333 117.918245 94.43669 159.266202l-23.481555 70.955134 82.695912-41.347956c29.607178 5.615155 53.088734 11.740778 82.695913 11.740778 7.657029 0 14.803589-0.510469 21.950149-1.020937-4.594217-15.824526-7.14656-32.159521-7.14656-49.515454-0.510469-102.604187 88.311067-186.321037 200.103689-186.321037zM502.811565 342.524427c17.866401 0 29.607178 11.740778 29.607179 29.607178s-11.740778 29.607178-29.607179 29.607179-35.222333-11.740778-35.222333-29.607179c-0.510469-18.376869 17.355932-29.607178 35.222333-29.607178zM337.419741 401.228315c-17.866401 0-35.732802-11.740778-35.732802-29.607178s17.866401-29.607178 35.732802-29.607179 29.607178 11.740778 29.607178 29.607179-11.740778 29.607178-29.607178 29.607178z m507.405782 188.87338c0-94.43669-94.43669-171.006979-200.614157-171.006979-112.303091 0-200.614158 77.080758-200.614158 171.006979 0 94.43669 88.311067 171.006979 200.614158 171.006979 23.481555 0 47.473579-6.125623 70.955134-11.740778l64.829512 35.732802-17.866401-59.214357c47.473579-35.222333 82.695912-82.185444 82.695912-135.784646z m-265.443669-29.607179c-11.740778 0-23.481555-11.740778-23.481555-23.481555s11.740778-23.481555 23.481555-23.481555c17.866401 0 29.607178 11.740778 29.607179 23.481555 0 12.251246-11.740778 23.481555-29.607179 23.481555z m129.659023 0c-11.740778 0-23.481555-11.740778-23.481555-23.481555s11.740778-23.481555 23.481555-23.481555c17.866401 0 29.607178 11.740778 29.607179 23.481555 0 12.251246-11.740778 23.481555-29.607179 23.481555z" fill="#FFFFFF" /></svg>