<?xml version="1.0" standalone="no"?><!DOCTYPE svg PUBLIC "-//W3C//DTD SVG 1.1//EN" "http://www.w3.org/Graphics/SVG/1.1/DTD/svg11.dtd"><svg class="icon" width="200px" height="199.80px" viewBox="0 0 1025 1024" version="1.1" xmlns="http://www.w3.org/2000/svg"><path d="M504.5 417.262c14.997 0 24.939-10.008 24.939-24.944 0-14.99-9.93-24.863-24.94-24.863-14.94 0-29.93 9.862-29.93 24.863 0.003 14.936 14.994 24.944 29.93 24.944zM569.296 511.982c-9.927 0-19.941 10.007-19.941 19.949 0 10.069 10.018 19.923 19.941 19.923 15.078 0 24.944-9.854 24.944-19.923 0-9.942-9.87-19.95-24.944-19.95zM365.032 367.455c-14.928 0-30.006 9.862-30.006 24.863 0 14.936 15.078 24.944 30.006 24.944s24.871-10.008 24.882-24.944c0-14.99-9.953-24.863-24.882-24.863zM678.916 511.982c-9.858 0-19.8 10.007-19.8 19.949 0 10.069 9.942 19.923 19.8 19.923 14.93 0 24.943-9.854 24.943-19.923 0-9.942-10.018-19.95-24.943-19.95z" fill="#8a8a8a" /><path d="M512 0C229.232 0 0 229.232 0 512.004 0 794.77 229.232 1024 512 1024c282.771 0 512.007-229.229 512.007-511.996C1024.007 229.232 794.771 0 512 0z m-82.258 621.685c-24.87 0-44.863-5.063-69.799-10.014l-69.66 34.954 19.93-59.959c-49.864-34.809-79.726-79.733-79.726-134.469 0-94.807 89.73-169.48 199.277-169.48 97.987 0 183.813 59.653 201.056 139.932-6.352-0.702-12.74-1.179-19.193-1.179-94.658 0-169.43 70.658-169.43 157.666 0 14.474 2.263 28.42 6.148 41.756-6.144 0.488-12.353 0.793-18.603 0.793z m293.975 69.792l14.991 49.806-54.666-29.93c-19.938 5.005-39.942 9.996-59.788 9.996-94.812 0-169.492-64.8-169.492-144.6 0-79.62 74.677-144.555 169.492-144.555 89.536 0 169.258 64.939 169.258 144.556 0.004 44.946-29.803 84.738-69.795 114.727z" fill="#8a8a8a" /></svg>