<?xml version="1.0" standalone="no"?><!DOCTYPE svg PUBLIC "-//W3C//DTD SVG 1.1//EN" "http://www.w3.org/Graphics/SVG/1.1/DTD/svg11.dtd"><svg class="icon" width="200px" height="200.00px" viewBox="0 0 1024 1024" version="1.1" xmlns="http://www.w3.org/2000/svg"><path d="M233.296349 578.657268a76.433787 76.433787 0 0 0-28.66267 41.783804 86.582495 86.582495 0 0 0 22.632894 79.278822 150.489633 150.489633 0 0 0 91.126059 38.556599 241.785545 241.785545 0 0 0 146.795333-50.573689 324.079255 324.079255 0 0 0 70.064305-69.384893 432.487843 432.487843 0 0 0-211.721589-60.934713 209.08887 209.08887 0 0 0-90.234332 21.27407zM982.559774 713.647828a511.936517 511.936517 0 1 0-56.391149 99.278996 56591.023592 56591.023592 0 0 0-320.809588-158.51518 395.247603 395.247603 0 0 1-176.010025 117.920347 253.335539 253.335539 0 0 1-126.582843 9.724076 167.942014 167.942014 0 0 1-89.979552-47.431411 170.235028 170.235028 0 0 1-27.049068-37.962114l1.18897 3.014889a91.041133 91.041133 0 0 1-7.685842-19.40569 87.134517 87.134517 0 0 1-3.312131-18.046866 94.820359 94.820359 0 0 1 0-12.993744 94.3108 94.3108 0 0 1 1.656066-23.949253A122.378985 122.378985 0 0 1 212.489374 560.100844 204.290526 204.290526 0 0 1 360.558604 509.824397a781.535468 781.535468 0 0 1 210.787398 48.153286 751.981071 751.981071 0 0 0 41.783804-120.510604h-305.310515v-32.866528h156.774189V338.612715H274.952763V305.576334h189.640717V239.588498c0-9.044665 1.783455-16.475727 16.518191-16.475727h74.268163V305.576334h206.286297v33.036381h-206.286297v65.987836h165.012052a648.243437 648.243437 0 0 1-68.365776 183.441088c114.990386 41.104392 276.775234 104.374582 330.533664 125.606189z" fill="#8a8a8a" /></svg>