<?xml version="1.0" standalone="no"?><!DOCTYPE svg PUBLIC "-//W3C//DTD SVG 1.1//EN" "http://www.w3.org/Graphics/SVG/1.1/DTD/svg11.dtd"><svg class="icon" width="200px" height="200.00px" viewBox="0 0 1024 1024" version="1.1" xmlns="http://www.w3.org/2000/svg"><path d="M211.03874656 682.3954475a101.7592875 101.7592875 0 0 1 83.03941875-104.63926781c104.63926781-17.27987906 248.63826 69.5995125 248.63826 69.5995125a312.47781281 312.47781281 0 0 1-226.55841469 126.71911312c-60.95957344-4.31997-104.63926781-39.35972437-104.63926687-91.67935781z m741.59480906 35.03975438c-12.95990906-4.31997-309.5978325-95.99932781-300.95789343-104.63926782a573.11598844 573.11598844 0 0 0 73.9194825-174.71877656v-26.39981531h-174.71877657V346.39779875h213.59850469v-39.35972437h-213.59850469v-95.99932782H463.99697562v91.67935875H271.99832v39.35972438h191.99865562v65.2795425H311.35804437v26.39981531h313.9178025a536.63624344 536.63624344 0 0 1-43.67969437 139.67902219A709.43503406 709.43503406 0 0 0 358.87771156 511.99664c-83.03941875 4.31997-148.31896219 30.71978531-179.03874656 91.67935781-43.67969437 113.27920687 26.39981531 227.03841094 183.35871656 227.03841094a331.19768156 331.19768156 0 0 0 248.63826-143.99899219c26.39981531 12.95990906 174.23878031 87.35938875 265.91813813 135.35905313A473.27668687 473.27668687 0 0 1 511.99664 991.99328a479.99664 479.99664 0 1 1 479.99664-479.99664 442.5569025 442.5569025 0 0 1-39.35972437 204.95856563z m0 0" fill="#19A0E5" /></svg>