<?xml version="1.0" standalone="no"?><!DOCTYPE svg PUBLIC "-//W3C//DTD SVG 1.1//EN" "http://www.w3.org/Graphics/SVG/1.1/DTD/svg11.dtd"><svg class="icon" width="200px" height="200.00px" viewBox="0 0 1024 1024" version="1.1" xmlns="http://www.w3.org/2000/svg"><path d="M512 34.133333c263.918933 0 477.866667 213.947733 477.866667 477.866667s-213.947733 477.866667-477.866667 477.866667S34.133333 775.918933 34.133333 512 248.081067 34.133333 512 34.133333z m307.2 564.224v-176.981333a101.376 101.376 0 0 0-101.410133-101.376h-134.2464l32.392533 45.841067 97.860267 29.969066c18.158933 5.7344 29.696 22.562133 29.5936 40.618667v146.8416a42.325333 42.325333 0 0 1-29.5936 40.618667l-97.860267 30.0032-32.426667 45.841066h134.280534A101.376 101.376 0 0 0 819.2 598.357333z m-405.981867-66.628266h202.922667v-45.738667h-202.922667v45.738667zM311.569067 699.733333h134.2464l-32.392534-45.841066-97.860266-30.0032a42.325333 42.325333 0 0 1-29.559467-40.618667V436.565333v-0.1024a42.325333 42.325333 0 0 1 29.559467-40.618666l97.860266-30.037334 32.426667-45.806933H311.534933a101.376 101.376 0 0 0-101.410133 101.376v176.9472A101.376 101.376 0 0 0 311.569067 699.733333z" fill="#515151" /></svg>