<?xml version="1.0" standalone="no"?><!DOCTYPE svg PUBLIC "-//W3C//DTD SVG 1.1//EN" "http://www.w3.org/Graphics/SVG/1.1/DTD/svg11.dtd"><svg class="icon" width="200px" height="200.00px" viewBox="0 0 1024 1024" version="1.1" xmlns="http://www.w3.org/2000/svg"><path d="M514.304 3.072c-281.344 0-509.44 228.096-509.44 509.44s228.096 509.44 509.44 509.44 509.44-228.096 509.44-509.44-228.096-509.44-509.44-509.44z m221.184 438.016c-1.024 4.096-3.328 10.24-6.656 17.408l-0.512 0.768c-19.712 42.24-71.168 125.184-71.168 125.184s0-0.256-0.256-0.512l-15.104 26.112H714.24l-138.496 184.576 31.488-125.44h-57.088l19.712-82.944c-16.128 3.84-35.072 9.216-57.6 16.384 0 0-30.464 17.92-87.552-34.304 0 0-38.656-34.048-16.128-42.496 9.472-3.584 46.08-8.192 75.008-12.032 38.912-5.12 62.976-8.192 62.976-8.192s-120.064 1.792-148.736-2.56c-28.416-4.352-64.768-52.224-72.448-93.952 0 0-12.032-23.04 25.6-12.032s192.768 42.24 192.768 42.24-201.984-61.952-215.296-77.056c-13.312-15.104-39.424-82.688-36.096-124.16 0 0 1.536-10.24 12.032-7.68 0 0 149.248 68.352 251.392 105.728 102.4 37.632 191.232 56.576 179.712 104.96z" fill="#3AABF9" /></svg>