<?xml version="1.0" standalone="no"?><!DOCTYPE svg PUBLIC "-//W3C//DTD SVG 1.1//EN" "http://www.w3.org/Graphics/SVG/1.1/DTD/svg11.dtd"><svg class="icon" width="200px" height="200.00px" viewBox="0 0 1024 1024" version="1.1" xmlns="http://www.w3.org/2000/svg"><path d="M722.579864 496.275801H481.439296v-179.19996l240.799235-34.952526 0.341333 214.12973z m0 243.711946l-241.140568-34.702215v-179.996404h240.913013l0.227555 214.721374zM452.562502 492.08878h-182.431248v-147.842812l182.658804-24.80355-0.227556 172.646362z m0 209.737908l-182.431248-25.167638v-151.460944h182.431248v176.628582zM874.018053 150.004589A510.998642 510.998642 0 0 0 512.022756 0 510.998642 510.998642 0 0 0 150.027458 150.004589c-200.021289 200.499155-200.021289 523.491439 0 723.990595A510.998642 510.998642 0 0 0 512 1023.999772a510.998642 510.998642 0 0 0 361.995297-150.004588c199.975778-200.521911 199.975778-523.468684 0-723.990595z" fill="#1296db" /></svg>