<?xml version="1.0" standalone="no"?><!DOCTYPE svg PUBLIC "-//W3C//DTD SVG 1.1//EN" "http://www.w3.org/Graphics/SVG/1.1/DTD/svg11.dtd"><svg t="1584192865091" class="icon" viewBox="0 0 1024 1024" version="1.1" xmlns="http://www.w3.org/2000/svg" p-id="4384" xmlns:xlink="http://www.w3.org/1999/xlink" width="200" height="200"><defs><style type="text/css"></style></defs><path d="M255.329734 650.325415c-21.48636-15.890922-19.573801-56.298214-5.658883-94.998631 14.027481-38.987966 49.364291-76.556607 49.762357-84.845387 1.402953-30.827099-3.044336-35.960003 0-44.056402 6.79066-18.155499 15.046694-11.189853 15.046694-20.594037 0-118.637004 88.145549-214.799134 196.883089-214.799134s196.915835 96.16213 196.915835 214.799134c0 4.542456 11.794627 0 17.46886 20.594037 1.14815 4.25593 1.944282 20.673855 0.575098 44.056402-0.669242 11.236925 29.965475 24.913413 45.777603 84.845387 15.827477 59.948347 0 88.207971-7.922437 94.998631-9.80225 8.400321-21.135366-6.16849-30.300097-20.769023-8.527211-13.643742-15.190981-27.288506-16.895809-22.092158-8.638751 26.140357-12.687974 43.626613-38.159088 72.110341-1.339508 1.51347 29.455869 12.655228 38.159088 36.373419 8.352225 22.7614 24.594141 58.823734-81.705883 70.1415-33.472346 3.538593-61.909002-6.28003-81.8164-16.066931-17.231453-8.487302-28.053939-16.983813-30.125111-16.807804-8.335852 0.732687-4.638647 0-13.580297 0-7.315616 0-7.794523 0.541329-14.6957 0-1.89721-0.127913-22.633486 32.874735-115.353215 32.874735-71.839165 0-90.472548-45.24446-75.998905-70.1415 14.440897-24.865317 38.573527-32.118512 35.161824-36.054147-16.736173-19.398816-28.275997-40.10337-35.161824-58.863642-1.722224-4.670369-3.155876-9.213849-4.272303-13.564947-1.258667-4.830005-6.551206 8.671497-14.121626 22.12388-6.471388 11.57257-14.632255 23.144116-23.335475 23.144116C259.808746 652.732232 257.560542 651.999544 255.329734 650.325415M63.865051 513.214664c0 247.156076 200.358237 447.506127 447.498964 447.506127 247.156076 0 447.498964-200.350051 447.498964-447.506127 0-247.140727-200.341864-447.498964-447.498964-447.498964C264.223289 65.715701 63.865051 266.073938 63.865051 513.214664" p-id="4385" fill="#137e0a"></path></svg>